# xmcd
# 
# Track frame offsets:
#     150
#     17518
#     34703
#     52591
#     71801
#     89503
#     106165
# 
# Disc length: 1652
# 
# Revision: 0
# Processed by: cddbd v1.5.2PL0 Copyright (c) Steve Scherf et al.
# Submitted via: fre:ac v1.0.17
# 
DISCID=4c067207
DTITLE=Pitbull - Global Warming [Disc 2]
DYEAR=2012
DGENRE=Rap
TTITLE0=Rain Over Me - Pitbull Feat. Marc Anthony
TTITLE1=International Love - Pitbull Feat. Chris Brown
TTITLE2=Hotel Room Service - Pitbull
TTITLE3=Give Me Everything - Pitbull
TTITLE4=Hey Baby (Drop It To The Floor) - Pitbull Feat. T-Pain
TTITLE5=DJ Got Us Fallin' In Love - Pitbull Feat.Usher
TTITLE6=Dance Again - Pitbull Feat. J. Lo
EXTD=
EXTT0=
EXTT1=
EXTT2=
EXTT3=
EXTT4=
EXTT5=
EXTT6=
PLAYORDER=
